<svg xmlns="http://www.w3.org/2000/svg" viewBox="0 0 63 69"><path fill="#fff" d="M32.34 24.541c-5.02 2.126-7.743 6.259-7.15 11.847.43 4.02 3.146 6.828 6.59 6.828a6.603 6.603 0 0 0 4.651-1.903 6.493 6.493 0 0 0 1.927-4.609v-.811l-3.356-12.217a16.29 16.29 0 0 0-2.662.865m2.662-.865l-3.01-10.948c-1.14-4.287.745-8.796 4.599-11.03 5.197-3.364 11.622-1.229 14.893 2.01a2.97 2.97 0 0 1 0 4.225 3.032 3.032 0 0 1-4.262 0c-1.502-1.489-5.137-2.69-7.376-1.21l-.179.11c-1.543.872-2.301 2.663-1.854 4.342l6.569 23.913v1.608c0 3.315-1.33 6.495-3.695 8.839a12.648 12.648 0 0 1-8.914 3.649c-6.731 0-11.842-5.29-12.578-12.175-1.061-9.987 5.779-17.02 14.195-19.2 1.959-.507 4-.752 6.05-.71 3.726.076 7.471 1.099 10.754 3.213 4.584 2.951 7.773 6.591 9.679 10.752 2.558 5.59 2.614 11.458 1.202 16.922-.342 1.327-.695 2.326-.942 2.898-4.571 10.879-14.625 17.641-27.456 18.09C14.809 69.597 0 54.725 0 36.694c.004-13.457 8.425-25.5 21.13-30.22 1.558-.579 3.294.204 3.878 1.749a2.98 2.98 0 0 1-1.764 3.846C12.889 15.918 6.026 25.732 6.023 36.698c0 14.711 12.05 26.808 26.438 26.307 10.499-.366 18.449-5.714 22.12-14.443.143-.332.395-1.044.655-2.055 1.101-4.26 1.058-8.798-.853-12.97-1.425-3.113-3.846-5.875-7.472-8.21-1.638-1.053-3.636-1.719-5.76-1.985a17.598 17.598 0 0 0-6.154.329"/></svg>